<?xml version="1.0" encoding="UTF-8" standalone="no"?>
<svg
   xmlns:dc="http://purl.org/dc/elements/1.1/"
   xmlns:cc="http://creativecommons.org/ns#"
   xmlns:rdf="http://www.w3.org/1999/02/22-rdf-syntax-ns#"
   xmlns:svg="http://www.w3.org/2000/svg"
   xmlns="http://www.w3.org/2000/svg"
   xmlns:sodipodi="http://sodipodi.sourceforge.net/DTD/sodipodi-0.dtd"
   xmlns:inkscape="http://www.inkscape.org/namespaces/inkscape"
   viewBox="0 0 400.36152 238.49699"
   height="146.88489"
   version="1.1"
   id="svg35"
   sodipodi:docname="numpy-logo.svg"
   width="400.36151"
   inkscape:version="0.92.5 (2060ec1f9f, 2020-04-08)">
  <metadata
     id="metadata39">
    <rdf:RDF>
      <cc:Work
         rdf:about="">
        <dc:format>image/svg+xml</dc:format>
        <dc:type
           rdf:resource="http://purl.org/dc/dcmitype/StillImage" />
        <dc:title></dc:title>
      </cc:Work>
    </rdf:RDF>
  </metadata>
  <sodipodi:namedview
     pagecolor="#ffffff"
     bordercolor="#666666"
     borderopacity="1"
     objecttolerance="10"
     gridtolerance="10"
     guidetolerance="10"
     inkscape:pageopacity="0"
     inkscape:pageshadow="2"
     inkscape:window-width="1540"
     inkscape:window-height="770"
     id="namedview37"
     showgrid="false"
     fit-margin-top="5"
     fit-margin-left="5"
     fit-margin-right="5"
     fit-margin-bottom="5"
     inkscape:zoom="0.45715237"
     inkscape:cx="32.76125"
     inkscape:cy="41.884911"
     inkscape:window-x="0"
     inkscape:window-y="27"
     inkscape:window-maximized="0"
     inkscape:current-layer="svg35" />
  <defs
     id="defs4">
    <style
       id="style2">.cls-1{fill:#4d77cf;}.cls-2{fill:#4dabcf;}</style>
  </defs>
  <g
     id="Layer_1"
     data-name="Layer 1"
     transform="translate(-160.73423,-43.1215)">
    <path
       class="cls-1"
       d="m 299.23,125 a 5.76,5.76 0 0 1 1.62,0.45 5.58,5.58 0 0 1 1.38,0.93 17,17 0 0 1 1.49,1.62 l 41.51,52.47 c -0.17,-1.67 -0.28,-3.31 -0.36,-4.88 -0.08,-1.57 -0.12,-3.07 -0.12,-4.47 v -46.29 h 17.87 v 87.38 h -10.56 a 9.68,9.68 0 0 1 -3.95,-0.72 8.47,8.47 0 0 1 -3.12,-2.64 l -41.21,-52 c 0.13,1.51 0.22,3 0.3,4.46 0.08,1.46 0.13,2.83 0.13,4.11 v 46.84 H 286.33 V 124.83 H 297 a 17.21,17.21 0 0 1 2.23,0.17 z"
       id="path6"
       inkscape:connector-curvature="0"
       style="fill:#4d77cf" />
    <path
       class="cls-1"
       d="m 392,150 v 39.46 q 0,4.62 2.1,7.14 a 7.62,7.62 0 0 0 6.18,2.52 13.26,13.26 0 0 0 5.73,-1.26 21.37,21.37 0 0 0 5.19,-3.54 V 150 h 18.59 v 62.19 h -11.51 a 4.39,4.39 0 0 1 -4.57,-3.12 l -1.13,-3.6 a 37.32,37.32 0 0 1 -3.72,3.16 23.32,23.32 0 0 1 -4.11,2.39 24.55,24.55 0 0 1 -4.75,1.58 25,25 0 0 1 -5.51,0.57 21.75,21.75 0 0 1 -9,-1.77 18.67,18.67 0 0 1 -6.63,-4.94 21.68,21.68 0 0 1 -4.08,-7.5 31,31 0 0 1 -1.38,-9.48 V 150 Z"
       id="path8"
       inkscape:connector-curvature="0"
       style="fill:#4d77cf" />
    <path
       class="cls-1"
       d="M 441.78,212.21 V 150 h 11.52 a 5.13,5.13 0 0 1 2.91,0.78 4.21,4.21 0 0 1 1.65,2.34 l 1,3.36 a 33.22,33.22 0 0 1 3.23,-3 20.83,20.83 0 0 1 3.63,-2.34 19.68,19.68 0 0 1 9.15,-2.13 14.6,14.6 0 0 1 9.33,2.91 18.14,18.14 0 0 1 5.6,7.76 18.71,18.71 0 0 1 3.81,-4.92 20.42,20.42 0 0 1 4.86,-3.29 23.69,23.69 0 0 1 5.51,-1.86 28.63,28.63 0 0 1 5.8,-0.6 26.3,26.3 0 0 1 9.47,1.59 18.05,18.05 0 0 1 6.93,4.62 20.15,20.15 0 0 1 4.23,7.44 32,32 0 0 1 1.44,10 v 39.52 h -18.6 v -39.49 q 0,-9.66 -8.27,-9.65 a 8.46,8.46 0 0 0 -6.27,2.49 q -2.49,2.47 -2.49,7.16 v 39.52 h -18.57 v -39.52 q 0,-5.34 -2.1,-7.5 c -1.4,-1.44 -3.46,-2.15 -6.18,-2.15 a 10.53,10.53 0 0 0 -4.77,1.13 17.72,17.72 0 0 0 -4.23,3.06 v 45 z"
       id="path10"
       inkscape:connector-curvature="0"
       style="fill:#4d77cf" />
    <path
       class="cls-1"
       d="m 562.93,183 v 29.21 h -20.27 v -87.38 h 30.82 a 50.86,50.86 0 0 1 15.87,2.17 30.49,30.49 0 0 1 10.91,6 23.36,23.36 0 0 1 6.33,9.06 30.63,30.63 0 0 1 2,11.27 33.11,33.11 0 0 1 -2.1,12 24.08,24.08 0 0 1 -6.42,9.36 30,30 0 0 1 -10.94,6.08 49.9,49.9 0 0 1 -15.65,2.23 z m 0,-15.29 h 10.55 c 5.28,0 9.08,-1.25 11.4,-3.78 2.32,-2.53 3.48,-6 3.48,-10.55 a 15.79,15.79 0 0 0 -0.9,-5.46 11.11,11.11 0 0 0 -2.73,-4.23 12.41,12.41 0 0 0 -4.62,-2.73 20.71,20.71 0 0 0 -6.63,-1 h -10.55 z"
       id="path12"
       inkscape:connector-curvature="0"
       style="fill:#4d77cf" />
    <path
       class="cls-1"
       d="m 644.61,228.35 a 6.69,6.69 0 0 1 -2,2.72 6.62,6.62 0 0 1 -3.84,0.87 h -13.95 l 12,-25.18 L 612,150 h 16.43 a 5.25,5.25 0 0 1 3.36,1 5.15,5.15 0 0 1 1.68,2.28 l 10.19,26.81 a 59,59 0 0 1 2.34,7.41 c 0.4,-1.28 0.84,-2.54 1.32,-3.77 0.48,-1.23 0.94,-2.5 1.38,-3.78 l 9.24,-26.69 a 4.5,4.5 0 0 1 1.89,-2.31 5.4,5.4 0 0 1 3,-0.93 h 15 z"
       id="path14"
       inkscape:connector-curvature="0"
       style="fill:#4d77cf" />
    <polygon
       class="cls-2"
       points="95.25,77.66 54.49,98 92.63,117.15 132.38,96.4 "
       id="polygon16"
       style="fill:#4dabcf" />
    <polygon
       class="cls-2"
       points="188.34,124.65 147.95,144.93 109.75,125.75 149.41,104.99 "
       id="polygon18"
       style="fill:#4dabcf" />
    <polygon
       class="cls-2"
       points="241.41,98 205.63,115.96 166.62,96.28 201.41,77.94 "
       id="polygon20"
       style="fill:#4dabcf" />
    <polygon
       class="cls-2"
       points="148.18,51.24 112.56,69.02 149.67,87.73 184.19,69.3 "
       id="polygon22"
       style="fill:#4dabcf" />
    <polygon
       class="cls-2"
       points="156.04,273.5 199.66,251.73 199.62,202.57 156.04,224.36 "
       id="polygon24"
       style="fill:#4dabcf" />
    <polygon
       class="cls-2"
       points="199.55,136.77 156.04,158.4 156.04,207.06 199.6,185.41 "
       id="polygon26"
       style="fill:#4dabcf" />
    <polygon
       class="cls-2"
       points="251.97,225.63 214.76,244.19 214.73,195.09 251.97,176.3 "
       id="polygon28"
       style="fill:#4dabcf" />
    <polygon
       class="cls-2"
       points="251.97,110.71 214.69,129.24 214.72,177.98 251.97,159.05 "
       id="polygon30"
       style="fill:#4dabcf" />
    <path
       class="cls-1"
       d="m 140.64,158.4 -29.38,-14.78 v 63.84 c 0,0 -35.94,-76.46 -39.26,-83.33 -0.43,-0.89 -2.19,-1.86 -2.64,-2.1 C 62.88,118.65 44,109.09 44,109.09 v 112.83 l 26.12,14 v -59 c 0,0 35.55,68.32 35.92,69.07 0.37,0.75 3.92,7.94 7.74,10.47 5.07,3.37 26.84,16.46 26.84,16.46 z"
       id="path32"
       inkscape:connector-curvature="0"
       style="fill:#4d77cf" />
  </g>
</svg>
